<svg viewBox="0 0 400 400" fill="none" xmlns="http://www.w3.org/2000/svg">
<g clip-path="url(#clip0_2_6)">
<path d="M200 0C160.444 0 121.776 11.7298 88.886 33.7061C55.9962 55.6823 30.3617 86.9181 15.2242 123.463C0.0866575 160.008 -3.87401 200.222 3.84303 239.018C11.5601 277.814 30.6082 313.451 58.5787 341.421C86.5492 369.392 122.186 388.44 160.982 396.157C199.778 403.874 239.991 399.913 276.537 384.776C313.082 369.638 344.318 344.004 366.294 311.114C388.27 278.224 400 239.556 400 200C400 146.957 378.929 96.0859 341.421 58.5786C303.914 21.0714 253.043 0 200 0ZM29.7298 200C29.7098 161.792 42.7477 124.725 66.6822 94.9426C90.6168 65.1604 124.011 44.4521 161.328 36.2506C198.645 28.049 237.644 32.8467 271.861 49.8483C306.078 66.85 333.457 95.0345 349.459 129.73H186.487L216.541 99.6757C217.887 98.3276 218.644 96.5001 218.644 94.5946C218.644 92.6891 217.887 90.8615 216.541 89.5135L205.081 78.054C203.733 76.7073 201.906 75.9508 200 75.9508C198.095 75.9508 196.267 76.7073 194.919 78.054L132.108 140.865C130.761 142.213 130.005 144.04 130.005 145.946C130.005 147.851 130.761 149.679 132.108 151.027L208.108 227.027H31.892C30.4592 218.089 29.7362 209.052 29.7298 200ZM197.297 367.567C163.783 367.58 131.036 357.544 103.285 338.754C75.5335 319.964 54.0543 293.285 41.6217 262.162H210.811L183.459 289.513C182.113 290.861 181.356 292.689 181.356 294.595C181.356 296.5 182.113 298.328 183.459 299.676L194.919 311.135C196.267 312.482 198.095 313.238 200 313.238C201.906 313.238 203.733 312.482 205.081 311.135L265.189 251.027C266.536 249.679 267.292 247.851 267.292 245.946C267.292 244.04 266.536 242.213 265.189 240.865L186.487 162.162H360.595C366.291 186.737 366.365 212.281 360.812 236.888C355.259 261.496 344.221 284.532 328.523 304.278C312.824 324.025 292.87 339.972 270.148 350.931C247.426 361.889 222.524 367.576 197.297 367.567Z" fill="url(#paint0_linear_2_6)"/>
</g>
<defs>
<linearGradient id="paint0_linear_2_6" x1="531.222" y1="-136.421" x2="53.3936" y2="341.407" gradientUnits="userSpaceOnUse">
<stop stop-color="#480D5B"/>
<stop offset="1" stop-color="#A636CC"/>
</linearGradient>
<clipPath id="clip0_2_6">
<rect width="400" height="400" fill="white"/>
</clipPath>
</defs>
</svg>
